<svg width="300" height="300" viewBox="0 0 300 300" fill="none" xmlns="http://www.w3.org/2000/svg">
<path d="M133.846 146.826H72.1154V262.211H133.846V146.826Z" stroke="#1A73E8" stroke-width="2" stroke-miterlimit="10" stroke-linecap="round" stroke-linejoin="round"/>
<path d="M230.192 146.826H133.846V262.211H230.192V146.826Z" stroke="#1A73E8" stroke-width="2" stroke-miterlimit="10" stroke-linecap="round" stroke-linejoin="round"/>
<path d="M105 191.826H43.2692L72.1154 146.826H133.846L105 191.826Z" fill="white" stroke="#1A73E8" stroke-width="2" stroke-miterlimit="10" stroke-linecap="round" stroke-linejoin="round"/>
<path d="M162.692 191.826H259.038L230.192 146.826H133.846L162.692 191.826Z" fill="white" stroke="#1A73E8" stroke-width="2" stroke-miterlimit="10" stroke-linecap="round" stroke-linejoin="round"/>
<path d="M218.654 238.268H190.673V250.671H218.654V238.268Z" fill="#1A73E8"/>
<path d="M148.558 118.847C164.489 118.847 177.404 105.932 177.404 90.0005C177.404 74.0692 164.489 61.1543 148.558 61.1543C132.626 61.1543 119.712 74.0692 119.712 90.0005C119.712 105.932 132.626 118.847 148.558 118.847Z" fill="#1A73E8"/>
<path d="M136.442 90.5777L144.231 98.3661L160.673 81.9238" stroke="white" stroke-width="2" stroke-miterlimit="10" stroke-linecap="round" stroke-linejoin="round"/>
<path d="M196.442 123.751L205.096 111.924" stroke="#1A73E8" stroke-width="2" stroke-miterlimit="10" stroke-linecap="round" stroke-linejoin="round"/>
<path d="M194.712 55.3848C198.854 55.3848 202.212 52.0269 202.212 47.8848C202.212 43.7426 198.854 40.3848 194.712 40.3848C190.569 40.3848 187.212 43.7426 187.212 47.8848C187.212 52.0269 190.569 55.3848 194.712 55.3848Z" fill="white" stroke="#1A73E8" stroke-width="2" stroke-miterlimit="10" stroke-linecap="round" stroke-linejoin="round"/>
<path d="M84.2308 97.5009C87.4039 94.3278 92.5962 94.3278 96.0577 97.5009C99.5192 100.674 99.2308 105.866 96.0577 109.328" fill="white"/>
<path d="M84.2308 97.5009C87.4039 94.3278 92.5962 94.3278 96.0577 97.5009C99.5192 100.674 99.2308 105.866 96.0577 109.328" stroke="#1A73E8" stroke-width="2" stroke-miterlimit="10" stroke-linecap="round" stroke-linejoin="round"/>
<path d="M133.846 230.191L72.1154 259.614H133.846V230.191Z" fill="#1A73E8"/>
</svg>
